# Blender v2.80 (sub 75) OBJ File: 'texturedCube.blend'
# www.blender.org
mtllib texturedCube.mtl
o Cube
v -1.000000 1.000000 1.000000
v -1.000000 1.000000 -1.000000
v 1.000000 1.000000 1.000000
v 1.000000 1.000000 -1.000000
v -1.000000 -1.000000 1.000000
v -1.000000 -1.000000 -1.000000
v 1.000000 -1.000000 1.000000
v 1.000000 -1.000000 -1.000000
vt 0.060163 0.946707
vt 0.348056 0.658813
vt 0.348056 0.946707
vt 0.687758 0.324758
vt 0.394242 0.031242
vt 0.687758 0.031242
vt 0.352778 0.640707
vt 0.060417 0.348346
vt 0.352778 0.348346
vt 0.686938 0.658001
vt 0.394007 0.950932
vt 0.394007 0.658001
vt 0.685361 0.643361
vt 0.391973 0.349973
vt 0.685361 0.349973
vt 0.355652 0.329595
vt 0.058033 0.031976
vt 0.355652 0.031976
vt 0.060163 0.658813
vt 0.394242 0.324758
vt 0.060417 0.640707
vt 0.686938 0.950931
vt 0.391973 0.643361
vt 0.058033 0.329595
vn 0.0000 0.0000 1.0000
vn 1.0000 0.0000 0.0000
vn 0.0000 -1.0000 0.0000
vn 0.0000 0.0000 -1.0000
vn 0.0000 1.0000 0.0000
vn -1.0000 0.0000 0.0000
usemtl testcube.001
s off
f 5/1/1 3/2/1 1/3/1
f 3/4/2 8/5/2 4/6/2
f 7/7/3 6/8/3 8/9/3
f 2/10/4 8/11/4 6/12/4
f 1/13/5 4/14/5 2/15/5
f 5/16/6 2/17/6 6/18/6
f 5/1/1 7/19/1 3/2/1
f 3/4/2 7/20/2 8/5/2
f 7/7/3 5/21/3 6/8/3
f 2/10/4 4/22/4 8/11/4
f 1/13/5 3/23/5 4/14/5
f 5/16/6 1/24/6 2/17/6
